# xmcd
#
# Track frame offsets:
#	150
#	12215
#	31929
#	53488
#	76890
#	98801
#	119861
#	136397
#	157980
#	176138
#	194504
#	212978
#
# Disc length: 3189 seconds
#
# Revision: 11
# Processed by: cddbd v1.5.2PL0 Copyright (c) Steve Scherf et al.
# Submitted via: Jack! The Knife 20 Magnifico
#
DISCID=a10c730c
DTITLE=Grave Digger - Excalibur
DYEAR=1999
DGENRE=Metal
TTITLE0=The Secrets Of Merlin
TTITLE1=Pendragon
TTITLE2=Excalibur
TTITLE3=The Round Table (Forever)
TTITLE4=Morgane Le Fay
TTITLE5=The Spell
TTITLE6=Tristan's Fate
TTITLE7=Lancelot
TTITLE8=Mordred's Song
TTITLE9=The Final War
TTITLE10=Emerald Eyes
TTITLE11=Avalon
EXTD=Sir Parcival and Sir Lancelot
EXTT0=Boltendahl, Lulis
EXTT1=Boltendahl, Lulis
EXTT2=Boltendahl, Lulis
EXTT3=Boltendahl, Lulis
EXTT4=Boltendahl, Lulis
EXTT5=Boltendahl, Lulis
EXTT6=Boltendahl, Lulis, Becker
EXTT7=Boltendahl, Lulis
EXTT8=Boltendahl, Lulis, Becker
EXTT9=Boltendahl, Lulis
EXTT10=Boltendahl, Katzenburg
EXTT11=Boltendahl, Lulis
PLAYORDER=
